<?xml version="1.0" standalone="no"?>
<!DOCTYPE svg PUBLIC "-//W3C//DTD SVG 20010904//EN"
 "http://www.w3.org/TR/2001/REC-SVG-20010904/DTD/svg10.dtd">
<svg version="1.0" xmlns="http://www.w3.org/2000/svg"
 width="300.000000pt" height="173.000000pt" viewBox="0 0 300.000000 173.000000"
 preserveAspectRatio="xMidYMid meet">
<metadata>
Created by potrace 1.10, written by Peter Selinger 2001-2011
</metadata>
<g transform="translate(0.000000,173.000000) scale(0.100000,-0.100000)"
fill="#000000" stroke="none">
<path d="M1796 1561 c-27 -11 -126 -59 -220 -106 -151 -76 -183 -88 -276 -106
-203 -38 -247 -62 -370 -204 -78 -90 -112 -115 -250 -186 -98 -50 -164 -110
-173 -158 -14 -67 -8 -153 13 -197 31 -64 79 -91 211 -118 63 -13 131 -31 153
-40 49 -21 53 -20 31 4 -23 25 -105 55 -175 64 -86 11 -144 33 -181 72 -33 34
-34 38 -34 114 0 64 4 84 21 107 32 43 77 69 178 103 134 44 158 65 259 222
88 136 127 157 337 178 142 15 189 32 294 107 50 35 126 82 171 104 73 35 90
39 156 39 83 0 165 -20 219 -53 25 -16 52 -22 98 -23 52 -1 70 -6 104 -30 49
-34 88 -104 95 -168 12 -102 -46 -232 -155 -347 -58 -62 -68 -69 -93 -64 -16
4 -53 6 -83 6 l-54 0 -7 47 c-11 87 21 194 89 296 30 45 67 141 66 170 -1 6
-16 -20 -34 -59 -18 -38 -58 -111 -89 -162 -65 -106 -88 -167 -90 -240 l-2
-52 -70 -11 c-64 -10 -213 -48 -258 -66 -16 -6 -17 -3 -10 22 17 62 9 118 -30
201 -51 109 -56 158 -24 253 14 41 23 77 21 79 -8 8 -64 -124 -70 -165 -4 -32
2 -75 25 -164 32 -122 33 -152 10 -225 -9 -26 -28 -39 -149 -98 -109 -53 -144
-66 -158 -58 -28 15 -68 97 -93 191 -44 169 -94 250 -155 250 -17 0 -37 -7
-44 -15 -15 -18 -8 -91 10 -109 9 -8 10 -2 5 25 -12 67 46 75 79 10 8 -15 27
-74 41 -131 31 -121 54 -171 103 -222 l35 -37 -37 -22 c-48 -28 -40 -36 11
-11 127 65 368 152 525 191 266 66 468 56 468 -23 0 -36 -17 -43 -125 -51 -55
-4 -136 -13 -180 -21 -86 -14 -220 -52 -212 -60 2 -2 37 3 78 11 101 22 264
30 315 16 22 -6 51 -22 65 -37 21 -23 24 -34 23 -102 0 -96 -8 -128 -36 -143
-36 -19 -145 -11 -313 22 -197 40 -396 46 -505 16 -77 -22 -201 -81 -226 -108
-27 -30 -37 -23 -31 22 7 57 42 89 145 136 48 22 103 47 122 57 64 30 -10 6
-153 -51 -76 -30 -148 -53 -160 -51 -28 4 -34 39 -11 73 9 14 18 46 18 70 1
54 -26 94 -78 114 -32 12 -46 11 -131 -10 l-95 -23 -28 21 c-25 19 -27 25 -27
97 1 79 -4 85 -24 27 -26 -79 0 -150 63 -171 29 -9 46 -9 90 4 73 22 118 20
149 -4 38 -30 41 -53 16 -98 -20 -35 -21 -42 -9 -71 7 -18 26 -39 41 -47 24
-12 29 -21 29 -53 0 -21 3 -72 6 -113 l7 -75 66 19 c179 50 259 60 546 68 300
9 364 18 480 67 91 38 99 57 92 214 -4 100 -2 122 14 159 13 28 19 65 19 111
0 67 0 68 53 131 79 93 115 150 143 225 22 58 25 80 22 148 -5 90 -28 147 -77
188 -36 30 -117 49 -169 41 -28 -4 -56 2 -117 27 -70 29 -94 33 -185 36 -86 3
-114 0 -154 -16z m-153 -1171 c48 -6 138 -22 199 -36 61 -15 147 -32 192 -38
l81 -13 -55 -17 c-63 -20 -280 -35 -503 -36 -152 0 -312 -13 -381 -31 -21 -6
-40 -8 -42 -6 -8 8 191 136 236 152 39 14 120 30 170 34 8 0 55 -4 103 -9z"/>
</g>
</svg>
