{
  "accessors": [
    {
      "bufferView": 2,
      "componentType": 5126,
      "count": 1499,
      "max": [
        1.3277581930160522,
        1.4041893482208252,
        2.7571542263031006
      ],
      "min": [
        -2.2948951721191406,
        -1.7151764631271362,
        0.029647886753082275
      ],
      "type": "VEC3"
    },
    {
      "bufferView": 2,
      "byteOffset": 17988,
      "componentType": 5126,
      "count": 1499,
      "max": [
        1.0,
        1.0,
        1.0
      ],
      "min": [
        -1.0,
        -1.0,
        -1.0
      ],
      "type": "VEC3"
    },
    {
      "bufferView": 3,
      "componentType": 5126,
      "count": 1499,
      "max": [
        1.0,
        0.9999959468841553,
        1.0,
        1.0
      ],
      "min": [
        -1.0,
        -1.0,
        -1.0,
        1.0
      ],
      "type": "VEC4"
    },
    {
      "bufferView": 1,
      "componentType": 5126,
      "count": 1499,
      "max": [
        0.9909999370574951,
        0.9920783638954163
      ],
      "min": [
        0.008926881477236748,
        0.0056459903717041016
      ],
      "type": "VEC2"
    },
    {
      "bufferView": 0,
      "componentType": 5125,
      "count": 6708,
      "type": "SCALAR"
    },
    {
      "bufferView": 2,
      "byteOffset": 35976,
      "componentType": 5126,
      "count": 350,
      "max": [
        1.7553406953811646,
        1.2165781259536743,
        2.8979766368865967
      ],
      "min": [
        -1.755340337753296,
        -1.128568410873413,
        3.993511199951172e-06
      ],
      "type": "VEC3"
    },
    {
      "bufferView": 2,
      "byteOffset": 40176,
      "componentType": 5126,
      "count": 350,
      "max": [
        1.0,
        1.0,
        1.0
      ],
      "min": [
        -1.0,
        -1.0,
        -1.0
      ],
      "type": "VEC3"
    },
    {
      "bufferView": 3,
      "byteOffset": 23984,
      "componentType": 5126,
      "count": 350,
      "max": [
        1.0,
        1.0,
        1.0,
        1.0
      ],
      "min": [
        -1.0,
        -1.0,
        -1.0,
        1.0
      ],
      "type": "VEC4"
    },
    {
      "bufferView": 1,
      "byteOffset": 11992,
      "componentType": 5126,
      "count": 350,
      "max": [
        0.9980091452598572,
        0.9782705307006836
      ],
      "min": [
        0.0019907993264496326,
        0.0019907993264496326
      ],
      "type": "VEC2"
    },
    {
      "bufferView": 0,
      "byteOffset": 26832,
      "componentType": 5125,
      "count": 1026,
      "type": "SCALAR"
    },
    {
      "bufferView": 2,
      "byteOffset": 44376,
      "componentType": 5126,
      "count": 244,
      "max": [
        2.5470290184020996,
        -0.7008169889450073,
        0.9982149600982666
      ],
      "min": [
        -1.7553400993347168,
        -3.2081758975982666,
        3.993511199951172e-06
      ],
      "type": "VEC3"
    },
    {
      "bufferView": 2,
      "byteOffset": 47304,
      "componentType": 5126,
      "count": 244,
      "max": [
        1.0,
        1.0,
        1.0
      ],
      "min": [
        -1.0,
        -1.0,
        -1.0
      ],
      "type": "VEC3"
    },
    {
      "bufferView": 3,
      "byteOffset": 29584,
      "componentType": 5126,
      "count": 244,
      "max": [
        1.0,
        1.0,
        1.0,
        1.0
      ],
      "min": [
        -4.663959771278314e-06,
        -1.0,
        -0.0009688336867839098,
        1.0
      ],
      "type": "VEC4"
    },
    {
      "bufferView": 1,
      "byteOffset": 14792,
      "componentType": 5126,
      "count": 244,
      "max": [
        0.9852828979492188,
        0.9985700249671936
      ],
      "min": [
        0.0014299455797299743,
        0.0014299455797299743
      ],
      "type": "VEC2"
    },
    {
      "bufferView": 0,
      "byteOffset": 30936,
      "componentType": 5125,
      "count": 540,
      "type": "SCALAR"
    },
    {
      "bufferView": 2,
      "byteOffset": 50232,
      "componentType": 5126,
      "count": 2060,
      "max": [
        2.038041591644287,
        -2.028961658477783,
        0.4285145401954651
      ],
      "min": [
        -1.5627366304397583,
        -3.006225109100342,
        0.24424013495445251
      ],
      "type": "VEC3"
    },
    {
      "bufferView": 2,
      "byteOffset": 74952,
      "componentType": 5126,
      "count": 2060,
      "max": [
        0.9875718355178833,
        0.9648852348327637,
        0.9941390156745911
      ],
      "min": [
        -0.9923051595687866,
        -0.9987924098968506,
        -0.07287214696407318
      ],
      "type": "VEC3"
    },
    {
      "bufferView": 3,
      "byteOffset": 33488,
      "componentType": 5126,
      "count": 2060,
      "max": [
        1.0,
        0.9941390156745911,
        0.998792290687561,
        1.0
      ],
      "min": [
        -1.0,
        -0.9941389560699463,
        -0.9987923502922058,
        1.0
      ],
      "type": "VEC4"
    },
    {
      "bufferView": 1,
      "byteOffset": 16744,
      "componentType": 5126,
      "count": 2060,
      "max": [
        0.9918580055236816,
        0.9935303926467896
      ],
      "min": [
        0.00646967301145196,
        0.00646967301145196
      ],
      "type": "VEC2"
    },
    {
      "bufferView": 0,
      "byteOffset": 33096,
      "componentType": 5125,
      "count": 3096,
      "type": "SCALAR"
    }
  ],
  "asset": {
    "extras": {
      "author": "Tuuttipingu (https://sketchfab.com/Tuuttipingu)",
      "license": "CC-BY-4.0 (http://creativecommons.org/licenses/by/4.0/)",
      "source": "https://sketchfab.com/3d-models/sci-fi-computer-71daf747a9b54b9299cc495533141eb5",
      "title": "Sci-fi Computer"
    },
    "generator": "Sketchfab-12.65.0",
    "version": "2.0"
  },
  "bufferViews": [
    {
      "buffer": 0,
      "byteLength": 45480,
      "name": "floatBufferViews",
      "target": 34963
    },
    {
      "buffer": 0,
      "byteLength": 33224,
      "byteOffset": 45480,
      "byteStride": 8,
      "name": "floatBufferViews",
      "target": 34962
    },
    {
      "buffer": 0,
      "byteLength": 99672,
      "byteOffset": 78704,
      "byteStride": 12,
      "name": "floatBufferViews",
      "target": 34962
    },
    {
      "buffer": 0,
      "byteLength": 66448,
      "byteOffset": 178376,
      "byteStride": 16,
      "name": "floatBufferViews",
      "target": 34962
    }
  ],
  "buffers": [
    {
      "byteLength": 244824,
      "uri": "scene.bin"
    }
  ],
  "images": [
    {
      "uri": "textures/screen_baseColor.png"
    },
    {
      "uri": "textures/screen_metallicRoughness.png"
    },
    {
      "uri": "textures/screen_emissive.png"
    },
    {
      "uri": "textures/screen_normal.png"
    },
    {
      "uri": "textures/computer_baseColor.png"
    },
    {
      "uri": "textures/computer_metallicRoughness.png"
    },
    {
      "uri": "textures/computer_emissive.png"
    },
    {
      "uri": "textures/computer_normal.png"
    },
    {
      "uri": "textures/keyboard_baseColor.png"
    },
    {
      "uri": "textures/keyboard_metallicRoughness.png"
    },
    {
      "uri": "textures/keyboard_normal.png"
    },
    {
      "uri": "textures/keys_baseColor.png"
    },
    {
      "uri": "textures/keys_metallicRoughness.png"
    },
    {
      "uri": "textures/keys_emissive.png"
    },
    {
      "uri": "textures/keys_normal.png"
    }
  ],
  "materials": [
    {
      "doubleSided": true,
      "emissiveFactor": [
        1.0,
        1.0,
        1.0
      ],
      "emissiveTexture": {
        "index": 2
      },
      "name": "screen",
      "normalTexture": {
        "index": 3
      },
      "occlusionTexture": {
        "index": 1
      },
      "pbrMetallicRoughness": {
        "baseColorTexture": {
          "index": 0
        },
        "metallicRoughnessTexture": {
          "index": 1
        }
      }
    },
    {
      "doubleSided": true,
      "emissiveFactor": [
        1.0,
        1.0,
        1.0
      ],
      "emissiveTexture": {
        "index": 6
      },
      "name": "computer",
      "normalTexture": {
        "index": 7
      },
      "occlusionTexture": {
        "index": 5
      },
      "pbrMetallicRoughness": {
        "baseColorTexture": {
          "index": 4
        },
        "metallicRoughnessTexture": {
          "index": 5
        }
      }
    },
    {
      "doubleSided": true,
      "name": "keyboard",
      "normalTexture": {
        "index": 10
      },
      "occlusionTexture": {
        "index": 9
      },
      "pbrMetallicRoughness": {
        "baseColorTexture": {
          "index": 8
        },
        "metallicRoughnessTexture": {
          "index": 9
        }
      }
    },
    {
      "doubleSided": true,
      "emissiveFactor": [
        1.0,
        1.0,
        1.0
      ],
      "emissiveTexture": {
        "index": 13
      },
      "name": "keys",
      "normalTexture": {
        "index": 14
      },
      "occlusionTexture": {
        "index": 12
      },
      "pbrMetallicRoughness": {
        "baseColorTexture": {
          "index": 11
        },
        "metallicRoughnessTexture": {
          "index": 12
        }
      }
    }
  ],
  "meshes": [
    {
      "name": "scifi_computer_screen_0",
      "primitives": [
        {
          "attributes": {
            "NORMAL": 1,
            "POSITION": 0,
            "TANGENT": 2,
            "TEXCOORD_0": 3
          },
          "indices": 4,
          "material": 0,
          "mode": 4
        }
      ]
    },
    {
      "name": "scifi_computer_computer_0",
      "primitives": [
        {
          "attributes": {
            "NORMAL": 6,
            "POSITION": 5,
            "TANGENT": 7,
            "TEXCOORD_0": 8
          },
          "indices": 9,
          "material": 1,
          "mode": 4
        }
      ]
    },
    {
      "name": "scifi_computer_keyboard_0",
      "primitives": [
        {
          "attributes": {
            "NORMAL": 11,
            "POSITION": 10,
            "TANGENT": 12,
            "TEXCOORD_0": 13
          },
          "indices": 14,
          "material": 2,
          "mode": 4
        }
      ]
    },
    {
      "name": "scifi_computer_keys_0",
      "primitives": [
        {
          "attributes": {
            "NORMAL": 16,
            "POSITION": 15,
            "TANGENT": 17,
            "TEXCOORD_0": 18
          },
          "indices": 19,
          "material": 3,
          "mode": 4
        }
      ]
    }
  ],
  "nodes": [
    {
      "children": [
        1
      ],
      "matrix": [
        1.0,
        0.0,
        0.0,
        0.0,
        0.0,
        2.220446049250313e-16,
        -1.0,
        0.0,
        0.0,
        1.0,
        2.220446049250313e-16,
        0.0,
        0.0,
        0.0,
        0.0,
        1.0
      ],
      "name": "Sketchfab_model"
    },
    {
      "children": [
        2
      ],
      "matrix": [
        1.0,
        0.0,
        0.0,
        0.0,
        0.0,
        0.0,
        1.0,
        0.0,
        0.0,
        -1.0,
        0.0,
        0.0,
        0.0,
        0.0,
        0.0,
        1.0
      ],
      "name": "05cd9ec89515449ca5c7ff68e9425e91.fbx"
    },
    {
      "children": [
        3
      ],
      "name": "RootNode"
    },
    {
      "children": [
        4,
        5,
        6,
        7
      ],
      "matrix": [
        1.0,
        0.0,
        0.0,
        0.0,
        0.0,
        -1.6292067939183141e-07,
        -0.9999999999999868,
        0.0,
        0.0,
        0.9999999999999868,
        -1.6292067939183141e-07,
        0.0,
        0.0,
        0.0,
        0.0,
        1.0
      ],
      "name": "scifi_computer"
    },
    {
      "mesh": 0,
      "name": "scifi_computer_screen_0"
    },
    {
      "mesh": 1,
      "name": "scifi_computer_computer_0"
    },
    {
      "mesh": 2,
      "name": "scifi_computer_keyboard_0"
    },
    {
      "mesh": 3,
      "name": "scifi_computer_keys_0"
    }
  ],
  "samplers": [
    {
      "magFilter": 9729,
      "minFilter": 9987,
      "wrapS": 10497,
      "wrapT": 10497
    }
  ],
  "scene": 0,
  "scenes": [
    {
      "name": "Sketchfab_Scene",
      "nodes": [
        0
      ]
    }
  ],
  "textures": [
    {
      "sampler": 0,
      "source": 0
    },
    {
      "sampler": 0,
      "source": 1
    },
    {
      "sampler": 0,
      "source": 2
    },
    {
      "sampler": 0,
      "source": 3
    },
    {
      "sampler": 0,
      "source": 4
    },
    {
      "sampler": 0,
      "source": 5
    },
    {
      "sampler": 0,
      "source": 6
    },
    {
      "sampler": 0,
      "source": 7
    },
    {
      "sampler": 0,
      "source": 8
    },
    {
      "sampler": 0,
      "source": 9
    },
    {
      "sampler": 0,
      "source": 10
    },
    {
      "sampler": 0,
      "source": 11
    },
    {
      "sampler": 0,
      "source": 12
    },
    {
      "sampler": 0,
      "source": 13
    },
    {
      "sampler": 0,
      "source": 14
    }
  ]
}
